HIERARCHY
ROOT Hips
{
	OFFSET 0.000000 0.000000 0.000000
	CHANNELS 6 Xposition Yposition Zposition Zrotation Yrotation Xrotation 
	JOINT LowerBack
	{
		OFFSET 0.000000 0.000000 0.000000
		CHANNELS 3 Zrotation Yrotation Xrotation
		JOINT Spine
		{
			OFFSET 0.028270 2.035590 -0.193380
			CHANNELS 3 Zrotation Yrotation Xrotation
			JOINT Spine1
			{
				OFFSET 0.056720 2.048850 -0.042750
				CHANNELS 3 Zrotation Yrotation Xrotation
				JOINT Neck
				{
					OFFSET 0.000000 0.000000 0.000000
					CHANNELS 3 Zrotation Yrotation Xrotation
					JOINT Neck1
					{
						OFFSET -0.054170 1.746240 0.172020
						CHANNELS 3 Zrotation Yrotation Xrotation
						JOINT Head
						{
							OFFSET 0.104070 1.761360 -0.123970
							CHANNELS 3 Zrotation Yrotation Xrotation
							End Site
							{
								OFFSET 0.000000 0.000000 0.000000
							}
						}
					}
				}
				JOINT LeftShoulder
				{
					OFFSET 0.000000 0.000000 0.000000
					CHANNELS 3 Zrotation Yrotation Xrotation
					JOINT LeftArm
					{
						OFFSET 3.362410 1.200890 -0.311210
						CHANNELS 3 Zrotation Yrotation Xrotation
						JOINT LeftForeArm
						{
							OFFSET 4.983000 -0.000000 -0.000000
							CHANNELS 3 Zrotation Yrotation Xrotation
							JOINT LeftHand
							{
								OFFSET 3.483560 -0.000000 -0.000000
								CHANNELS 3 Zrotation Yrotation Xrotation
								JOINT LeftFingerBase
								{
									OFFSET 0.000000 0.000000 0.000000
									CHANNELS 3 Zrotation Yrotation Xrotation
									JOINT LeftHandIndex1
									{
										OFFSET 0.715260 -0.000000 -0.000000
										CHANNELS 3 Zrotation Yrotation Xrotation
										End Site
										{
											OFFSET 0.000000 0.000000 0.000000
										}
									}
								}
								JOINT LThumb
								{
									OFFSET 0.000000 0.000000 0.000000
									CHANNELS 3 Zrotation Yrotation Xrotation
									End Site
									{
										OFFSET 0.000000 0.000000 0.000000
									}
								}
							}
						}
					}
				}
				JOINT RightShoulder
				{
					OFFSET 0.000000 0.000000 0.000000
					CHANNELS 3 Zrotation Yrotation Xrotation
					JOINT RightArm
					{
						OFFSET -3.136600 1.374050 -0.404650
						CHANNELS 3 Zrotation Yrotation Xrotation
						JOINT RightForeArm
						{
							OFFSET -5.241900 -0.000000 -0.000000
							CHANNELS 3 Zrotation Yrotation Xrotation
							JOINT RightHand
							{
								OFFSET -3.444170 -0.000000 -0.000000
								CHANNELS 3 Zrotation Yrotation Xrotation
								JOINT RightFingerBase
								{
									OFFSET 0.000000 0.000000 0.000000
									CHANNELS 3 Zrotation Yrotation Xrotation
									JOINT RightHandIndex1
									{
										OFFSET -0.622530 -0.000000 -0.000000
										CHANNELS 3 Zrotation Yrotation Xrotation
										End Site
										{
											OFFSET 0.000000 0.000000 0.000000
										}
									}
								}
								JOINT RThumb
								{
									OFFSET 0.000000 0.000000 0.000000
									CHANNELS 3 Zrotation Yrotation Xrotation
									End Site
									{
										OFFSET 0.000000 0.000000 0.000000
									}
								}
							}
						}
					}
				}
			}
		}
	}
}
}
MOTION
Frames: 18
Frame Time: 0.008333
16.958420 16.812412 1.654739 155.231808 -86.005695 -102.937933 -0.075084 -2.540581 -4.952714 -0.324764 -2.694149 -3.597622 -3.997329 -2.889976 2.224629 8.725592 -16.657841 -13.368502 -0.486553 0.085094 -1.977654 0.000000 0.000000 0.000000 -2.531397 16.644413 2.986406 -57.953184 44.302523 6.209876 -3.199252 -20.457405 0.001271 -1.164705 -0.830453 0.007068 -0.140116 -0.053970 0.000000 0.000000 0.000000 0.000000 0.000000 0.000000 0.000000 7.821754 -15.696407 3.231756 54.608553 -41.648054 -20.483235 3.039434 11.579619 0.022259 -3.405149 8.384279 -0.267452 0.196892 -0.114842 -0.000000 0.000000 0.000000 0.000000 0.000000 0.000000 0.000000 
16.938917 16.718614 1.651123 151.200792 -86.086113 -97.530274 -0.042484 -2.588442 -5.281182 -0.340457 -2.755936 -3.694642 -4.064816 -2.955068 2.185784 8.890416 -16.733926 -13.551962 -0.525045 0.085974 -2.051778 0.000000 0.000000 0.000000 -2.792669 16.339513 3.062259 -58.237076 43.586139 6.262748 -3.131854 -21.099969 0.001943 -1.009180 -1.015756 0.007578 -0.136999 -0.047774 0.000000 0.000000 0.000000 0.000000 0.000000 0.000000 0.000000 8.211066 -15.744068 3.339152 55.357909 -41.083807 -19.698016 2.976074 12.545291 0.020944 -3.455169 8.176456 -0.264151 0.192736 -0.113434 -0.000000 0.000000 0.000000 0.000000 0.000000 0.000000 0.000000 
16.917911 16.613333 1.647731 146.794191 -86.140867 -91.705244 -0.009635 -2.636469 -5.662887 -0.355507 -2.819406 -3.804245 -4.129467 -3.022313 2.152968 9.051792 -16.823066 -13.735477 -0.563751 0.086798 -2.125704 0.000000 0.000000 0.000000 -3.013079 16.049170 3.138518 -58.525769 42.800782 6.337132 -3.062459 -21.706393 0.002681 -0.813786 -1.232022 0.007289 -0.134217 -0.041038 -0.000000 0.000000 0.000000 0.000000 0.000000 0.000000 0.000000 8.603132 -15.808837 3.438989 56.058179 -40.477047 -18.854031 2.912636 13.507788 0.019669 -3.514428 7.977099 -0.261649 0.188751 -0.112465 -0.000000 0.000000 0.000000 0.000000 0.000000 0.000000 0.000000 
16.895136 16.495968 1.644655 142.127629 -86.164307 -85.587578 0.023077 -2.683543 -6.098473 -0.369610 -2.883548 -3.926484 -4.190886 -3.090704 2.126475 9.206930 -16.921697 -13.916485 -0.602755 0.087495 -2.198363 0.000000 0.000000 0.000000 -3.194877 15.774283 3.213786 -58.818016 41.958354 6.417017 -2.992241 -22.276004 0.003445 -0.582161 -1.472725 0.005899 -0.131807 -0.033838 0.000000 0.000000 0.000000 0.000000 0.000000 0.000000 0.000000 8.993095 -15.887384 3.530560 56.707924 -39.831886 -17.990162 2.849850 14.452725 0.018456 -3.580579 7.793291 -0.260048 0.184985 -0.112051 -0.000000 0.000000 0.000000 0.000000 0.000000 0.000000 0.000000 
16.871413 16.366881 1.642179 137.321393 -86.158459 -79.328960 0.061964 -2.728359 -6.562336 -0.382704 -2.947065 -4.057657 -4.254620 -3.158765 2.095889 9.355838 -17.006048 -14.086487 -0.648064 0.087310 -2.267242 0.000000 0.000000 0.000000 -3.367234 15.475855 3.285113 -59.111067 41.126875 6.454687 -2.921321 -22.860570 0.004183 -0.322599 -1.725968 0.003114 -0.129665 -0.026375 0.000000 0.000000 0.000000 0.000000 0.000000 0.000000 0.000000 9.395928 -15.952445 3.614983 57.320290 -39.191682 -17.148656 2.787465 15.417290 0.017239 -3.653620 7.605688 -0.258546 0.181434 -0.112132 -0.000000 0.000000 0.000000 0.000000 0.000000 0.000000 0.000000 
16.846316 16.225881 1.640308 132.451547 -86.124031 -73.015984 0.109382 -2.771137 -7.054658 -0.393988 -3.010568 -4.197632 -4.321335 -3.227115 2.060987 9.495990 -17.066136 -14.241058 -0.701123 0.085989 -2.330625 0.000000 0.000000 0.000000 -3.533168 15.152360 3.351186 -59.402379 40.319454 6.443298 -2.850376 -23.464267 0.004891 -0.036138 -1.994906 -0.001373 -0.127827 -0.018702 0.000000 0.000000 0.000000 0.000000 0.000000 0.000000 0.000000 9.809841 -15.994330 3.691158 57.900304 -38.563425 -16.381260 2.726635 16.390886 0.016057 -3.725261 7.425746 -0.257044 0.178087 -0.112853 -0.000000 0.000000 0.000000 0.000000 0.000000 0.000000 0.000000 
16.819370 16.072144 1.638951 127.613279 -86.061388 -66.739081 0.165100 -2.812130 -7.588210 -0.401390 -3.074651 -4.346013 -4.385021 -3.296350 2.034121 9.623504 -17.120528 -14.385367 -0.756113 0.084176 -2.389667 0.000000 0.000000 0.000000 -3.666402 14.853031 3.413882 -59.693747 39.468366 6.425024 -2.780576 -24.028319 0.005531 0.275351 -2.266913 -0.007659 -0.126363 -0.010895 0.000000 0.000000 0.000000 0.000000 0.000000 0.000000 0.000000 10.213348 -16.034342 3.756475 58.437445 -37.904029 -15.676212 2.667997 17.325071 0.014972 -3.809016 7.276444 -0.257143 0.175142 -0.114244 -0.000000 0.000000 0.000000 0.000000 0.000000 0.000000 0.000000 
16.791087 15.906709 1.638195 122.846352 -85.977565 -60.567528 0.238088 -2.851098 -8.139041 -0.404079 -3.139409 -4.498917 -4.451269 -3.366364 2.006584 9.739032 -17.146454 -14.511890 -0.818616 0.081168 -2.442109 0.000000 0.000000 0.000000 -3.797779 14.546720 3.470549 -59.976310 38.624597 6.373784 -2.711805 -24.601435 0.006082 0.602712 -2.537365 -0.015844 -0.125128 -0.003130 -0.000000 0.000000 0.000000 0.000000 0.000000 0.000000 0.000000 10.619888 -16.046742 3.811931 58.949346 -37.242249 -15.082474 2.611544 18.246941 0.013946 -3.896291 7.149085 -0.258139 0.172485 -0.116294 0.000000 0.000000 0.000000 0.000000 0.000000 0.000000 0.000000 
16.761644 15.730354 1.637937 118.177257 -85.878025 -54.546014 0.333524 -2.887572 -8.692435 -0.400917 -3.204596 -4.652405 -4.521101 -3.436722 1.978258 9.843684 -17.140664 -14.620078 -0.889585 0.076856 -2.487809 0.000000 0.000000 0.000000 -3.933182 14.238287 3.520950 -60.243848 37.776889 6.302846 -2.644062 -25.182446 0.006529 0.942120 -2.802866 -0.025832 -0.124046 0.004490 -0.000000 0.000000 0.000000 0.000000 0.000000 0.000000 0.000000 11.032738 -16.026732 3.856961 59.439584 -36.574722 -14.591724 2.556863 19.164284 0.012966 -3.994647 7.041565 -0.260436 0.170155 -0.118910 0.000000 0.000000 0.000000 0.000000 0.000000 0.000000 0.000000 
16.717756 15.529074 1.660205 101.608607 -85.973022 -36.316979 1.289800 -2.986914 -9.732150 -0.152972 -3.415282 -4.922430 -4.578335 -3.657058 1.984120 9.706897 -17.085995 -14.684407 -0.964422 0.070286 -2.508418 0.000000 0.000000 0.000000 -4.427506 14.026005 3.566312 -60.416368 37.017158 6.333846 -2.566981 -25.823385 0.006897 1.287001 -3.059376 -0.037510 -0.123391 0.011904 -0.000000 0.000000 0.000000 0.000000 0.000000 0.000000 0.000000 11.132582 -16.026630 3.856034 59.659174 -36.059113 -14.010512 2.550779 20.113367 0.012315 -4.103728 6.938183 -0.263536 0.170722 -0.121604 -0.000000 0.000000 0.000000 0.000000 0.000000 0.000000 0.000000 
16.686564 15.334356 1.660417 97.710841 -85.808513 -31.222211 1.442053 -2.999502 -10.249042 -0.135059 -3.467447 -5.067242 -4.662959 -3.713897 1.949818 9.801008 -17.002615 -14.755690 -1.056877 0.062915 -2.540786 0.000000 0.000000 0.000000 -4.604060 13.720507 3.601285 -60.622544 36.135067 6.264148 -2.501554 -26.421085 0.007120 1.644687 -3.303749 -0.050895 -0.122329 0.018759 -0.000000 0.000000 0.000000 0.000000 0.000000 0.000000 0.000000 11.580659 -15.917080 3.881164 60.117322 -35.373415 -13.696808 2.497668 21.047424 0.011360 -4.240563 6.862599 -0.269130 0.169020 -0.124997 -0.000000 0.000000 0.000000 0.000000 0.000000 0.000000 0.000000 
16.654607 15.133131 1.660631 94.022115 -85.646290 -26.438578 1.619288 -3.006746 -10.720185 -0.112788 -3.516781 -5.201391 -4.756909 -3.767344 1.909362 9.894318 -16.872740 -14.810438 -1.162917 0.053797 -2.567563 0.000000 0.000000 0.000000 -4.815939 13.413317 3.629674 -60.780006 35.206353 6.215505 -2.436366 -27.013323 0.007220 2.014673 -3.532432 -0.065982 -0.121159 0.025109 -0.000000 0.000000 0.000000 0.000000 0.000000 0.000000 0.000000 12.060978 -15.755452 3.896089 60.559487 -34.664064 -13.442571 2.444068 21.994346 0.010375 -4.406806 6.798807 -0.276825 0.167613 -0.128705 -0.000000 0.000000 0.000000 0.000000 0.000000 0.000000 0.000000 
16.621674 14.927227 1.660691 90.557680 -85.486695 -21.991572 1.816646 -3.008731 -11.133949 -0.088089 -3.562529 -5.322391 -4.861574 -3.816580 1.861143 9.991193 -16.692627 -14.851212 -1.284121 0.042852 -2.589852 0.000000 0.000000 0.000000 -5.071153 13.104554 3.652158 -60.876826 34.206392 6.199175 -2.371256 -27.579390 0.007193 2.402715 -3.741732 -0.082768 -0.119831 0.030842 -0.000000 0.000000 0.000000 0.000000 0.000000 0.000000 0.000000 12.584135 -15.537651 3.901265 60.982207 -33.918256 -13.222258 2.389234 22.949463 0.009330 -4.610058 6.743601 -0.286919 0.166493 -0.132634 -0.000000 0.000000 0.000000 0.000000 0.000000 0.000000 0.000000 
16.587884 14.718613 1.660458 87.349824 -85.327124 -17.921171 2.026363 -3.006443 -11.482425 -0.063672 -3.604550 -5.428911 -4.978346 -3.861471 1.802994 10.095468 -16.456079 -14.879859 -1.422512 0.029942 -2.608522 0.000000 0.000000 0.000000 -5.378022 12.788996 3.669569 -60.902285 33.114278 6.218716 -2.306168 -28.096384 0.007036 2.818239 -3.928666 -0.101254 -0.118314 0.035844 -0.000000 0.000000 0.000000 0.000000 0.000000 0.000000 0.000000 13.161300 -15.257977 3.897527 61.382557 -33.124075 -13.021697 2.332675 23.902921 0.008198 -4.854061 6.694349 -0.299509 0.165618 -0.136719 -0.000000 0.000000 0.000000 0.000000 0.000000 0.000000 0.000000 
16.552915 14.509152 1.659837 84.429595 -85.163959 -14.261274 2.238596 -3.001379 -11.762608 -0.041960 -3.642893 -5.519779 -5.105546 -3.902116 1.736896 10.209536 -16.168681 -14.901317 -1.577003 0.015302 -2.625401 0.000000 0.000000 0.000000 -5.733267 12.474559 3.683689 -60.852616 31.883727 6.281365 -2.241745 -28.515490 0.006737 3.268950 -4.086087 -0.121645 -0.116602 0.040061 -0.000000 0.000000 0.000000 0.000000 0.000000 0.000000 0.000000 13.793980 -14.924334 3.885461 61.749315 -32.250330 -12.790504 2.273792 24.826030 0.006946 -5.158198 6.649802 -0.315800 0.165105 -0.140811 -0.000000 0.000000 0.000000 0.000000 0.000000 0.000000 0.000000 
16.516168 14.300813 1.658823 81.827387 -84.992410 -11.044181 2.443522 -2.995387 -11.975517 -0.026203 -3.678275 -5.596323 -5.244811 -3.939401 1.659468 10.335333 -15.816838 -14.914122 -1.750824 -0.001388 -2.640268 0.000000 0.000000 0.000000 -6.144000 12.143704 3.695441 -60.722446 30.511343 6.372635 -2.178135 -28.816563 0.006303 3.769068 -4.213199 -0.144039 -0.114676 0.043390 -0.000000 0.000000 0.000000 0.000000 0.000000 0.000000 0.000000 14.494063 -14.524747 3.866711 62.082332 -31.292476 -12.545882 2.212859 25.700741 0.005548 -5.514409 6.604588 -0.334890 0.164809 -0.144878 -0.000000 0.000000 0.000000 0.000000 0.000000 0.000000 0.000000 
16.477441 14.095314 1.657458 79.561979 -84.807513 -8.286062 2.631301 -2.990120 -12.127143 -0.018244 -3.711142 -5.659317 -5.392918 -3.973952 1.573961 10.471461 -15.408048 -14.920822 -1.941664 -0.019816 -2.654087 0.000000 0.000000 0.000000 -6.603104 11.799281 3.706634 -60.517024 28.959331 6.484035 -2.116696 -28.949941 0.005721 4.321043 -4.300794 -0.167934 -0.112484 0.045837 -0.000000 0.000000 0.000000 0.000000 0.000000 0.000000 0.000000 15.254628 -14.070753 3.842519 62.370888 -30.214559 -12.245780 2.149803 26.484070 0.003971 -5.940478 6.556377 -0.357679 0.164845 -0.148756 -0.000000 0.000000 0.000000 0.000000 0.000000 0.000000 0.000000 
16.435920 13.894257 1.655796 77.643069 -84.605658 -5.992490 2.792940 -2.986741 -12.226307 -0.020306 -3.741929 -5.711139 -5.549134 -4.006453 1.480201 10.616634 -14.933819 -14.918197 -2.150788 -0.040128 -2.665991 0.000000 0.000000 0.000000 -7.105903 11.429285 3.718473 -60.241830 27.218614 6.600516 -2.057988 -28.886258 0.005003 4.937718 -4.351542 -0.193634 -0.109985 0.047431 -0.000000 0.000000 0.000000 0.000000 0.000000 0.000000 0.000000 16.078481 -13.556672 3.814310 62.613227 -29.005471 -11.903301 2.085057 27.148090 0.002200 -6.430319 6.500125 -0.383468 0.165099 -0.152384 -0.000000 0.000000 0.000000 0.000000 0.000000 0.000000 0.000000 
